<mxfile host="Electron" agent="Mozilla/5.0 (Windows NT 10.0; Win64; x64) AppleWebKit/537.36 (KHTML, like Gecko) draw.io/26.1.1 Chrome/132.0.6834.210 Electron/34.3.3 Safari/537.36" version="26.1.1">
  <diagram name="Page-1" id="C04IEGfYR6SF6fKbPGiv">
    <mxGraphModel dx="1838" dy="1069" grid="1" gridSize="10" guides="1" tooltips="1" connect="1" arrows="1" fold="1" page="1" pageScale="1" pageWidth="827" pageHeight="1169" math="0" shadow="0">
      <root>
        <mxCell id="0" />
        <mxCell id="1" parent="0" />
        <mxCell id="ioknQtN-GIBvkZYbFq44-5" value="" style="whiteSpace=wrap;html=1;aspect=fixed;fillColor=none;strokeWidth=5;" vertex="1" parent="1">
          <mxGeometry x="310" y="450" width="350" height="350" as="geometry" />
        </mxCell>
        <mxCell id="y-pAfAxGIghwStiiHOj4-25" style="rounded=0;orthogonalLoop=1;jettySize=auto;html=1;exitX=0.5;exitY=1;exitDx=0;exitDy=0;entryX=0.25;entryY=0;entryDx=0;entryDy=0;endArrow=none;endFill=0;fontFamily=Times New Roman;strokeWidth=5;" parent="1" edge="1">
          <mxGeometry relative="1" as="geometry">
            <mxPoint x="420" y="480" as="sourcePoint" />
            <mxPoint x="425" y="490" as="targetPoint" />
          </mxGeometry>
        </mxCell>
        <mxCell id="y-pAfAxGIghwStiiHOj4-24" style="rounded=0;orthogonalLoop=1;jettySize=auto;html=1;exitX=0.5;exitY=1;exitDx=0;exitDy=0;entryX=0.75;entryY=0;entryDx=0;entryDy=0;endArrow=none;endFill=0;fontFamily=Times New Roman;strokeWidth=5;" parent="1" edge="1">
          <mxGeometry relative="1" as="geometry">
            <mxPoint x="460" y="480" as="sourcePoint" />
            <mxPoint x="455" y="490" as="targetPoint" />
          </mxGeometry>
        </mxCell>
        <mxCell id="y-pAfAxGIghwStiiHOj4-29" style="rounded=0;orthogonalLoop=1;jettySize=auto;html=1;exitX=0.5;exitY=1;exitDx=0;exitDy=0;entryX=0.25;entryY=0;entryDx=0;entryDy=0;endArrow=none;endFill=0;fontFamily=Times New Roman;strokeWidth=5;" parent="1" edge="1">
          <mxGeometry relative="1" as="geometry">
            <mxPoint x="500" y="480" as="sourcePoint" />
            <mxPoint x="505" y="490" as="targetPoint" />
          </mxGeometry>
        </mxCell>
        <mxCell id="y-pAfAxGIghwStiiHOj4-28" style="rounded=0;orthogonalLoop=1;jettySize=auto;html=1;exitX=0.5;exitY=1;exitDx=0;exitDy=0;entryX=0.75;entryY=0;entryDx=0;entryDy=0;endArrow=none;endFill=0;fontFamily=Times New Roman;strokeWidth=5;" parent="1" edge="1">
          <mxGeometry relative="1" as="geometry">
            <mxPoint x="540" y="480" as="sourcePoint" />
            <mxPoint x="535" y="490" as="targetPoint" />
          </mxGeometry>
        </mxCell>
        <mxCell id="y-pAfAxGIghwStiiHOj4-22" value="" style="rounded=1;whiteSpace=wrap;html=1;fontFamily=Times New Roman;strokeWidth=5;" parent="1" vertex="1">
          <mxGeometry x="410" y="490" width="60" height="60" as="geometry" />
        </mxCell>
        <mxCell id="y-pAfAxGIghwStiiHOj4-26" value="" style="rounded=1;whiteSpace=wrap;html=1;fontFamily=Times New Roman;strokeWidth=5;" parent="1" vertex="1">
          <mxGeometry x="490" y="490" width="60" height="60" as="geometry" />
        </mxCell>
        <mxCell id="y-pAfAxGIghwStiiHOj4-52" style="rounded=0;orthogonalLoop=1;jettySize=auto;html=1;exitX=0.25;exitY=1;exitDx=0;exitDy=0;entryX=0.25;entryY=0;entryDx=0;entryDy=0;endArrow=none;endFill=0;fontFamily=Times New Roman;strokeWidth=5;" parent="1" source="y-pAfAxGIghwStiiHOj4-22" target="y-pAfAxGIghwStiiHOj4-50" edge="1">
          <mxGeometry relative="1" as="geometry">
            <mxPoint x="420" y="560" as="sourcePoint" />
          </mxGeometry>
        </mxCell>
        <mxCell id="y-pAfAxGIghwStiiHOj4-53" style="rounded=0;orthogonalLoop=1;jettySize=auto;html=1;exitX=0.75;exitY=1;exitDx=0;exitDy=0;entryX=0.25;entryY=0;entryDx=0;entryDy=0;endArrow=none;endFill=0;fontFamily=Times New Roman;strokeWidth=5;" parent="1" source="y-pAfAxGIghwStiiHOj4-22" target="y-pAfAxGIghwStiiHOj4-51" edge="1">
          <mxGeometry relative="1" as="geometry">
            <mxPoint x="460" y="560" as="sourcePoint" />
          </mxGeometry>
        </mxCell>
        <mxCell id="y-pAfAxGIghwStiiHOj4-54" style="rounded=0;orthogonalLoop=1;jettySize=auto;html=1;exitX=0.25;exitY=1;exitDx=0;exitDy=0;entryX=0.75;entryY=0;entryDx=0;entryDy=0;endArrow=none;endFill=0;fontFamily=Times New Roman;strokeWidth=5;" parent="1" source="y-pAfAxGIghwStiiHOj4-26" target="y-pAfAxGIghwStiiHOj4-50" edge="1">
          <mxGeometry relative="1" as="geometry">
            <mxPoint x="500" y="560" as="sourcePoint" />
          </mxGeometry>
        </mxCell>
        <mxCell id="y-pAfAxGIghwStiiHOj4-55" style="rounded=0;orthogonalLoop=1;jettySize=auto;html=1;exitX=0.75;exitY=1;exitDx=0;exitDy=0;entryX=0.75;entryY=0;entryDx=0;entryDy=0;endArrow=none;endFill=0;fontFamily=Times New Roman;strokeWidth=5;" parent="1" source="y-pAfAxGIghwStiiHOj4-26" target="y-pAfAxGIghwStiiHOj4-51" edge="1">
          <mxGeometry relative="1" as="geometry">
            <mxPoint x="540" y="560" as="sourcePoint" />
          </mxGeometry>
        </mxCell>
        <mxCell id="y-pAfAxGIghwStiiHOj4-50" value="" style="rounded=1;whiteSpace=wrap;html=1;fontFamily=Times New Roman;strokeWidth=5;" parent="1" vertex="1">
          <mxGeometry x="410" y="600" width="60" height="60" as="geometry" />
        </mxCell>
        <mxCell id="y-pAfAxGIghwStiiHOj4-51" value="" style="rounded=1;whiteSpace=wrap;html=1;fontFamily=Times New Roman;strokeWidth=5;" parent="1" vertex="1">
          <mxGeometry x="490" y="600" width="60" height="60" as="geometry" />
        </mxCell>
        <mxCell id="HHx09hRQY9JAWK_8JCNL-132" style="rounded=0;orthogonalLoop=1;jettySize=auto;html=1;exitX=0.25;exitY=1;exitDx=0;exitDy=0;entryX=0.5;entryY=0;entryDx=0;entryDy=0;endArrow=none;endFill=0;strokeWidth=5;" parent="1" edge="1">
          <mxGeometry relative="1" as="geometry">
            <mxPoint x="405" y="770" as="sourcePoint" />
            <mxPoint x="400" y="780.0000000000001" as="targetPoint" />
          </mxGeometry>
        </mxCell>
        <mxCell id="HHx09hRQY9JAWK_8JCNL-133" style="rounded=0;orthogonalLoop=1;jettySize=auto;html=1;exitX=0.75;exitY=1;exitDx=0;exitDy=0;entryX=0.5;entryY=0;entryDx=0;entryDy=0;endArrow=none;endFill=0;strokeWidth=5;" parent="1" edge="1">
          <mxGeometry relative="1" as="geometry">
            <mxPoint x="435" y="770" as="sourcePoint" />
            <mxPoint x="440" y="780.0000000000001" as="targetPoint" />
          </mxGeometry>
        </mxCell>
        <mxCell id="y-pAfAxGIghwStiiHOj4-56" value="" style="rounded=1;whiteSpace=wrap;html=1;fontFamily=Times New Roman;strokeWidth=5;" parent="1" vertex="1">
          <mxGeometry x="390" y="710" width="60" height="60" as="geometry" />
        </mxCell>
        <mxCell id="HHx09hRQY9JAWK_8JCNL-134" style="rounded=0;orthogonalLoop=1;jettySize=auto;html=1;exitX=0.25;exitY=1;exitDx=0;exitDy=0;entryX=0.5;entryY=0;entryDx=0;entryDy=0;endArrow=none;endFill=0;strokeWidth=5;" parent="1" edge="1">
          <mxGeometry relative="1" as="geometry">
            <mxPoint x="485" y="770" as="sourcePoint" />
            <mxPoint x="480" y="780.0000000000001" as="targetPoint" />
          </mxGeometry>
        </mxCell>
        <mxCell id="HHx09hRQY9JAWK_8JCNL-135" style="rounded=0;orthogonalLoop=1;jettySize=auto;html=1;exitX=0.75;exitY=1;exitDx=0;exitDy=0;entryX=0.5;entryY=0;entryDx=0;entryDy=0;endArrow=none;endFill=0;strokeWidth=5;" parent="1" edge="1">
          <mxGeometry relative="1" as="geometry">
            <mxPoint x="515" y="770" as="sourcePoint" />
            <mxPoint x="520" y="780.0000000000001" as="targetPoint" />
          </mxGeometry>
        </mxCell>
        <mxCell id="y-pAfAxGIghwStiiHOj4-57" value="" style="rounded=1;whiteSpace=wrap;html=1;fontFamily=Times New Roman;strokeWidth=5;" parent="1" vertex="1">
          <mxGeometry x="470" y="710" width="60" height="60" as="geometry" />
        </mxCell>
        <mxCell id="HHx09hRQY9JAWK_8JCNL-136" style="rounded=0;orthogonalLoop=1;jettySize=auto;html=1;exitX=0.25;exitY=1;exitDx=0;exitDy=0;entryX=0.5;entryY=0;entryDx=0;entryDy=0;endArrow=none;endFill=0;strokeWidth=5;" parent="1" edge="1">
          <mxGeometry relative="1" as="geometry">
            <mxPoint x="565" y="770" as="sourcePoint" />
            <mxPoint x="560" y="780.0000000000001" as="targetPoint" />
          </mxGeometry>
        </mxCell>
        <mxCell id="HHx09hRQY9JAWK_8JCNL-137" style="rounded=0;orthogonalLoop=1;jettySize=auto;html=1;exitX=0.75;exitY=1;exitDx=0;exitDy=0;entryX=0.5;entryY=0;entryDx=0;entryDy=0;endArrow=none;endFill=0;strokeWidth=5;" parent="1" edge="1">
          <mxGeometry relative="1" as="geometry">
            <mxPoint x="595" y="770" as="sourcePoint" />
            <mxPoint x="600" y="780.0000000000001" as="targetPoint" />
          </mxGeometry>
        </mxCell>
        <mxCell id="y-pAfAxGIghwStiiHOj4-58" value="" style="rounded=1;whiteSpace=wrap;html=1;fontFamily=Times New Roman;strokeWidth=5;" parent="1" vertex="1">
          <mxGeometry x="550" y="710" width="60" height="60" as="geometry" />
        </mxCell>
        <mxCell id="y-pAfAxGIghwStiiHOj4-95" style="rounded=0;orthogonalLoop=1;jettySize=auto;html=1;entryX=0.25;entryY=0;entryDx=0;entryDy=0;endArrow=none;endFill=0;fontFamily=Times New Roman;exitX=0.75;exitY=1;exitDx=0;exitDy=0;strokeWidth=5;" parent="1" source="y-pAfAxGIghwStiiHOj4-50" target="y-pAfAxGIghwStiiHOj4-56" edge="1">
          <mxGeometry relative="1" as="geometry">
            <mxPoint x="405" y="730" as="sourcePoint" />
          </mxGeometry>
        </mxCell>
        <mxCell id="y-pAfAxGIghwStiiHOj4-96" style="rounded=0;orthogonalLoop=1;jettySize=auto;html=1;exitX=0.75;exitY=1;exitDx=0;exitDy=0;entryX=0.25;entryY=0;entryDx=0;entryDy=0;endArrow=none;endFill=0;fontFamily=Times New Roman;strokeWidth=5;" parent="1" source="y-pAfAxGIghwStiiHOj4-50" target="y-pAfAxGIghwStiiHOj4-57" edge="1">
          <mxGeometry relative="1" as="geometry">
            <mxPoint x="440" y="730" as="sourcePoint" />
          </mxGeometry>
        </mxCell>
        <mxCell id="y-pAfAxGIghwStiiHOj4-97" style="rounded=0;orthogonalLoop=1;jettySize=auto;html=1;exitX=0.25;exitY=1;exitDx=0;exitDy=0;entryX=0.75;entryY=0;entryDx=0;entryDy=0;endArrow=none;endFill=0;fontFamily=Times New Roman;strokeWidth=5;" parent="1" source="y-pAfAxGIghwStiiHOj4-51" target="y-pAfAxGIghwStiiHOj4-56" edge="1">
          <mxGeometry relative="1" as="geometry">
            <mxPoint x="480" y="730" as="sourcePoint" />
          </mxGeometry>
        </mxCell>
        <mxCell id="y-pAfAxGIghwStiiHOj4-98" style="rounded=0;orthogonalLoop=1;jettySize=auto;html=1;exitX=0.25;exitY=1;exitDx=0;exitDy=0;entryX=0.25;entryY=0;entryDx=0;entryDy=0;endArrow=none;endFill=0;fontFamily=Times New Roman;strokeWidth=5;" parent="1" source="y-pAfAxGIghwStiiHOj4-51" target="y-pAfAxGIghwStiiHOj4-58" edge="1">
          <mxGeometry relative="1" as="geometry">
            <mxPoint x="520" y="730" as="sourcePoint" />
          </mxGeometry>
        </mxCell>
        <mxCell id="y-pAfAxGIghwStiiHOj4-99" style="rounded=0;orthogonalLoop=1;jettySize=auto;html=1;exitX=0.75;exitY=1;exitDx=0;exitDy=0;entryX=0.75;entryY=0;entryDx=0;entryDy=0;endArrow=none;endFill=0;fontFamily=Times New Roman;strokeWidth=5;" parent="1" source="y-pAfAxGIghwStiiHOj4-51" target="y-pAfAxGIghwStiiHOj4-57" edge="1">
          <mxGeometry relative="1" as="geometry">
            <mxPoint x="560" y="730" as="sourcePoint" />
          </mxGeometry>
        </mxCell>
        <mxCell id="y-pAfAxGIghwStiiHOj4-100" style="rounded=0;orthogonalLoop=1;jettySize=auto;html=1;entryX=0.75;entryY=0;entryDx=0;entryDy=0;endArrow=none;endFill=0;fontFamily=Times New Roman;exitX=0.75;exitY=1;exitDx=0;exitDy=0;strokeWidth=5;" parent="1" source="y-pAfAxGIghwStiiHOj4-51" target="y-pAfAxGIghwStiiHOj4-58" edge="1">
          <mxGeometry relative="1" as="geometry">
            <mxPoint x="600" y="730" as="sourcePoint" />
          </mxGeometry>
        </mxCell>
        <mxCell id="y-pAfAxGIghwStiiHOj4-109" style="edgeStyle=orthogonalEdgeStyle;rounded=0;orthogonalLoop=1;jettySize=auto;html=1;fontFamily=Times New Roman;strokeWidth=5;" parent="1" edge="1">
          <mxGeometry relative="1" as="geometry">
            <mxPoint x="419.9819672131148" y="480" as="targetPoint" />
            <mxPoint x="420" y="450" as="sourcePoint" />
          </mxGeometry>
        </mxCell>
        <mxCell id="y-pAfAxGIghwStiiHOj4-110" style="edgeStyle=orthogonalEdgeStyle;rounded=0;orthogonalLoop=1;jettySize=auto;html=1;fontFamily=Times New Roman;strokeWidth=5;" parent="1" edge="1">
          <mxGeometry relative="1" as="geometry">
            <mxPoint x="459.9819672131148" y="480" as="targetPoint" />
            <mxPoint x="460" y="450" as="sourcePoint" />
          </mxGeometry>
        </mxCell>
        <mxCell id="y-pAfAxGIghwStiiHOj4-111" style="edgeStyle=orthogonalEdgeStyle;rounded=0;orthogonalLoop=1;jettySize=auto;html=1;fontFamily=Times New Roman;strokeWidth=5;" parent="1" edge="1">
          <mxGeometry relative="1" as="geometry">
            <mxPoint x="499.9819672131148" y="480" as="targetPoint" />
            <mxPoint x="500" y="450" as="sourcePoint" />
          </mxGeometry>
        </mxCell>
        <mxCell id="y-pAfAxGIghwStiiHOj4-112" style="edgeStyle=orthogonalEdgeStyle;rounded=0;orthogonalLoop=1;jettySize=auto;html=1;fontFamily=Times New Roman;strokeWidth=5;" parent="1" edge="1">
          <mxGeometry relative="1" as="geometry">
            <mxPoint x="539.9819672131148" y="480" as="targetPoint" />
            <mxPoint x="540" y="450" as="sourcePoint" />
          </mxGeometry>
        </mxCell>
        <mxCell id="HHx09hRQY9JAWK_8JCNL-138" style="rounded=0;orthogonalLoop=1;jettySize=auto;html=1;exitX=0.5;exitY=1;exitDx=0;exitDy=0;entryX=0.5;entryY=0;entryDx=0;entryDy=0;strokeWidth=5;" parent="1" edge="1">
          <mxGeometry relative="1" as="geometry">
            <mxPoint x="399.88" y="780.0000000000001" as="sourcePoint" />
            <mxPoint x="399.88" y="800.0000000000001" as="targetPoint" />
          </mxGeometry>
        </mxCell>
        <mxCell id="HHx09hRQY9JAWK_8JCNL-139" style="rounded=0;orthogonalLoop=1;jettySize=auto;html=1;exitX=0.5;exitY=1;exitDx=0;exitDy=0;entryX=0.5;entryY=0;entryDx=0;entryDy=0;strokeWidth=5;" parent="1" edge="1">
          <mxGeometry relative="1" as="geometry">
            <mxPoint x="439.88" y="780.0000000000001" as="sourcePoint" />
            <mxPoint x="439.88" y="800.0000000000001" as="targetPoint" />
          </mxGeometry>
        </mxCell>
        <mxCell id="HHx09hRQY9JAWK_8JCNL-140" style="rounded=0;orthogonalLoop=1;jettySize=auto;html=1;exitX=0.5;exitY=1;exitDx=0;exitDy=0;entryX=0.5;entryY=0;entryDx=0;entryDy=0;strokeWidth=5;" parent="1" edge="1">
          <mxGeometry relative="1" as="geometry">
            <mxPoint x="479.88" y="780.0000000000001" as="sourcePoint" />
            <mxPoint x="479.88" y="800.0000000000001" as="targetPoint" />
          </mxGeometry>
        </mxCell>
        <mxCell id="HHx09hRQY9JAWK_8JCNL-141" style="rounded=0;orthogonalLoop=1;jettySize=auto;html=1;exitX=0.5;exitY=1;exitDx=0;exitDy=0;entryX=0.5;entryY=0;entryDx=0;entryDy=0;strokeWidth=5;" parent="1" edge="1">
          <mxGeometry relative="1" as="geometry">
            <mxPoint x="519.88" y="780.0000000000001" as="sourcePoint" />
            <mxPoint x="519.88" y="800.0000000000001" as="targetPoint" />
          </mxGeometry>
        </mxCell>
        <mxCell id="HHx09hRQY9JAWK_8JCNL-142" style="rounded=0;orthogonalLoop=1;jettySize=auto;html=1;exitX=0.5;exitY=1;exitDx=0;exitDy=0;entryX=0.5;entryY=0;entryDx=0;entryDy=0;strokeWidth=5;" parent="1" edge="1">
          <mxGeometry relative="1" as="geometry">
            <mxPoint x="559.88" y="780.0000000000001" as="sourcePoint" />
            <mxPoint x="559.88" y="800.0000000000001" as="targetPoint" />
          </mxGeometry>
        </mxCell>
        <mxCell id="HHx09hRQY9JAWK_8JCNL-143" style="rounded=0;orthogonalLoop=1;jettySize=auto;html=1;exitX=0.5;exitY=1;exitDx=0;exitDy=0;entryX=0.5;entryY=0;entryDx=0;entryDy=0;strokeWidth=5;" parent="1" edge="1">
          <mxGeometry relative="1" as="geometry">
            <mxPoint x="599.88" y="780.0000000000001" as="sourcePoint" />
            <mxPoint x="599.88" y="800.0000000000001" as="targetPoint" />
          </mxGeometry>
        </mxCell>
        <mxCell id="ioknQtN-GIBvkZYbFq44-7" style="rounded=0;orthogonalLoop=1;jettySize=auto;html=1;entryX=0.5;entryY=0;entryDx=0;entryDy=0;strokeWidth=5;" edge="1" parent="1">
          <mxGeometry relative="1" as="geometry">
            <mxPoint x="360" y="710" as="sourcePoint" />
            <mxPoint x="360" y="798.7500000000001" as="targetPoint" />
          </mxGeometry>
        </mxCell>
        <mxCell id="ioknQtN-GIBvkZYbFq44-8" style="rounded=0;orthogonalLoop=1;jettySize=auto;html=1;endArrow=none;endFill=0;fontFamily=Times New Roman;exitX=0.25;exitY=1;exitDx=0;exitDy=0;strokeWidth=5;" edge="1" parent="1" source="y-pAfAxGIghwStiiHOj4-50">
          <mxGeometry relative="1" as="geometry">
            <mxPoint x="410" y="660" as="sourcePoint" />
            <mxPoint x="360" y="710" as="targetPoint" />
          </mxGeometry>
        </mxCell>
      </root>
    </mxGraphModel>
  </diagram>
</mxfile>
